<svg width="117" height="46" viewBox="0 0 117 46" fill="none" xmlns="http://www.w3.org/2000/svg">
<rect x="85.3867" y="7.57812" width="31.0485" height="11.7379" rx="5.86893" transform="rotate(4 85.3867 7.57812)" fill="#FF4141"/>
<path d="M110.004 14.6797C110.672 14.7265 111.112 15.1373 111.054 15.9715L110.943 17.557L110.295 17.5118L110.4 16.0092C110.435 15.5169 110.224 15.2626 109.83 15.2351C109.405 15.2054 109.09 15.4645 109.052 16.0138L108.953 17.4179L108.306 17.3726L108.411 15.87C108.445 15.3778 108.234 15.1235 107.84 15.096C107.41 15.0659 107.1 15.3254 107.062 15.8746L106.964 17.2788L106.316 17.2335L106.51 14.4666L107.126 14.5098L107.101 14.8621C107.326 14.6279 107.657 14.5156 108.035 14.5421C108.439 14.5703 108.765 14.7441 108.935 15.0684C109.178 14.799 109.564 14.649 110.004 14.6797Z" fill="white"/>
<path d="M105.254 13.0513C105.172 13.0455 105.103 13.0615 105.022 13.0975L104.923 12.8719C105.037 12.807 105.185 12.7808 105.33 12.791C105.599 12.8098 105.754 12.9769 105.738 13.21C105.724 13.4121 105.573 13.5629 105.365 13.6265L105.212 13.4388C105.356 13.3812 105.424 13.3026 105.43 13.2249C105.437 13.1265 105.363 13.0589 105.254 13.0513ZM104.525 13.6615L104.054 13.9149L103.515 13.8772L104.253 13.3717L104.834 13.4123L105.494 14.0156L104.955 13.978L104.525 13.6615ZM104.455 16.588C104.766 16.6097 105.011 16.528 105.228 16.34L105.542 16.7629C105.277 17.0412 104.878 17.1695 104.401 17.1361C103.474 17.0713 102.914 16.4334 102.972 15.6096C103.03 14.7857 103.672 14.2371 104.496 14.2947C105.268 14.3487 105.853 14.9103 105.798 15.7759L103.65 16.0423C103.763 16.3677 104.051 16.5597 104.455 16.588ZM104.46 14.8128C103.988 14.7798 103.639 15.0886 103.602 15.6171L103.601 15.6223L105.187 15.4312C105.122 15.0883 104.848 14.84 104.46 14.8128Z" fill="white"/>
<path d="M102.157 13.7027C101.919 13.686 101.754 13.5027 101.77 13.2851C101.785 13.0675 101.973 12.9088 102.211 12.9255C102.45 12.9421 102.615 13.1151 102.6 13.3275C102.584 13.5555 102.401 13.7197 102.157 13.7027ZM101.605 16.9027L101.799 14.1358L102.446 14.1811L102.253 16.948L101.605 16.9027Z" fill="white"/>
<path d="M101.429 13.3636L101.4 13.7885L100.975 13.7588L100.759 16.8469L100.137 16.8034L100.162 16.4459C99.926 16.6949 99.5957 16.802 99.2174 16.7756C98.4143 16.7194 97.8576 16.1181 97.9177 15.258C97.9779 14.3979 98.6125 13.8852 99.4156 13.9413C99.7731 13.9663 100.081 14.1076 100.281 14.3767L100.327 13.7135L99.3064 13.6421L99.3361 13.2173L100.357 13.2886L100.38 12.957L101.028 13.0023L101.005 13.3339L101.429 13.3636ZM99.3339 16.2266C99.8003 16.2592 100.181 15.9474 100.218 15.4189C100.255 14.8904 99.9213 14.5286 99.4549 14.496C98.9886 14.4634 98.6076 14.7752 98.5706 15.3037C98.5336 15.8322 98.8676 16.194 99.3339 16.2266Z" fill="white"/>
<path d="M95.2277 13.2977L95.9768 12.6368L96.7385 12.6901L95.7873 13.3369L95.2277 13.2977ZM95.1166 16.4505L95.3101 13.6836L95.9577 13.7289L95.7643 16.4957L95.1166 16.4505Z" fill="white"/>
<path d="M93.3327 13.5138C93.9959 13.5602 94.4617 13.9729 94.4034 14.8071L94.2925 16.3926L93.6448 16.3473L93.7499 14.8447C93.7843 14.3525 93.5575 14.0971 93.143 14.0681C92.6818 14.0359 92.3514 14.2939 92.3126 14.8483L92.2148 16.2473L91.5671 16.202L91.8359 12.3574L92.4836 12.4027L92.3858 13.8017C92.6142 13.5886 92.9493 13.487 93.3327 13.5138Z" fill="white"/>
<path d="M90.8956 15.5421L91.0447 16.0159C90.8806 16.1294 90.6431 16.1752 90.4099 16.1589C89.8037 16.1165 89.479 15.771 89.5218 15.1596L89.6953 12.6777L90.343 12.723L90.2988 13.3552L91.0397 13.407L91.0035 13.9251L90.2626 13.8733L90.1705 15.1894C90.1517 15.4588 90.2814 15.6137 90.525 15.6307C90.6597 15.6401 90.7917 15.6129 90.8956 15.5421Z" fill="white"/>
<path d="M45.2207 31.2713C43.6573 30.9951 42.7004 30.7869 42.7004 29.9991C42.7004 29.2793 43.527 28.8492 44.9152 28.8492C45.7644 28.8492 46.5371 29.0031 47.2155 29.3064C47.7995 29.569 48.4959 29.3245 48.8014 28.7541C48.9721 28.4372 48.9945 28.0614 48.8732 27.7264C48.7474 27.3868 48.4824 27.1152 48.1454 26.9884C47.202 26.6262 46.0294 26.418 44.9377 26.418C41.9501 26.418 40.0183 27.8577 40.0183 30.0851C40.0183 32.8966 42.6105 33.3312 44.5064 33.6482C46.007 33.8972 46.9234 34.0873 46.9234 34.8026C46.9234 35.0833 46.9234 35.9345 44.6861 35.9345C43.7022 35.9345 42.633 35.69 41.7524 35.2644C41.1414 34.9656 40.4181 35.2056 40.1037 35.8032L40.0857 35.8349C39.9284 36.1382 39.897 36.4823 40.0048 36.8083C40.1126 37.1342 40.3373 37.3968 40.6473 37.5507C41.721 38.0759 43.1766 38.3928 44.5379 38.3928C47.6243 38.3928 49.6235 36.9712 49.6235 34.7664C49.6235 32.0409 47.184 31.6154 45.2207 31.2713Z" fill="#0095E8"/>
<path d="M62.3533 26.5123H60.372C60.1699 26.5123 60.0081 26.6753 60.0081 26.879V27.6261C59.1006 26.8338 57.9056 26.4082 56.5578 26.4082C53.0895 26.4082 50.668 28.8666 50.668 32.3843C50.668 35.9156 53.0895 38.3785 56.5578 38.3785C58.0448 38.3785 59.3297 37.876 60.2507 36.9479C60.5652 37.713 61.3155 38.2563 62.187 38.2563H62.3533C62.5554 38.2563 62.7172 38.0933 62.7172 37.8896V26.8745C62.7127 26.6753 62.5509 26.5123 62.3533 26.5123ZM60.0306 32.3798C60.0306 34.4533 58.6693 35.9021 56.724 35.9021C54.7652 35.9021 53.395 34.4533 53.395 32.3798C53.395 30.3198 54.7652 28.8801 56.724 28.8801C58.6693 28.8801 60.0306 30.3198 60.0306 32.3798Z" fill="#0095E8"/>
<path d="M71.1801 26.4082C67.6265 26.4082 65.0432 28.9209 65.0432 32.3843C65.0432 35.8568 67.622 38.3785 71.1801 38.3785C72.8199 38.3785 74.2576 37.8126 75.237 36.7894C75.502 36.5087 75.6323 36.1284 75.5829 35.7436C75.538 35.3588 75.3223 35.0192 74.9989 34.8155C74.4957 34.4986 73.8353 34.571 73.4264 34.9966C72.8469 35.5942 72.0652 35.9066 71.1577 35.9066C69.1315 35.9066 67.7657 34.4895 67.7657 32.3843C67.7657 30.2927 69.127 28.8847 71.1577 28.8847C72.0607 28.8847 72.8424 29.1971 73.4219 29.7901C73.8353 30.2157 74.5002 30.2881 75.0168 29.9576C75.3358 29.7494 75.5469 29.4098 75.5919 29.0295C75.6368 28.6447 75.511 28.2644 75.2415 27.9882C74.2531 26.9515 72.8469 26.4082 71.1801 26.4082Z" fill="#0095E8"/>
<path d="M84.1881 26.4104C82.7954 26.4104 81.5869 26.8088 80.6928 27.5467V23.4721C80.6928 22.7206 80.0863 22.1094 79.3406 22.1094C78.5948 22.1094 77.9883 22.7206 77.9883 23.4721V37.8917C77.9883 38.0955 78.15 38.2585 78.3522 38.2585H80.3334C80.5356 38.2585 80.6973 38.0955 80.6973 37.8917V32.219C80.6973 30.1273 81.8295 28.9276 83.7972 28.9276C85.5134 28.9276 86.385 29.8874 86.385 31.7843V35.8997C86.385 37.1991 87.4363 38.2585 88.7256 38.2585C88.9278 38.2585 89.0895 38.0955 89.0895 37.8917V31.5534C89.085 28.33 87.2521 26.4104 84.1881 26.4104Z" fill="#0095E8"/>
<path d="M96.5079 31.2713C94.9444 30.9951 93.9875 30.7869 93.9875 29.9991C93.9875 29.2793 94.8141 28.8492 96.2024 28.8492C97.0515 28.8492 97.8242 29.0031 98.5026 29.3064C99.0866 29.569 99.783 29.3245 100.088 28.7541C100.259 28.4372 100.282 28.0614 100.16 27.7264C100.035 27.3868 99.7695 27.1152 99.4326 26.9884C98.4891 26.6262 97.3165 26.418 96.2248 26.418C93.2372 26.418 91.3054 27.8577 91.3054 30.0851C91.3054 32.8966 93.8976 33.3312 95.7935 33.6482C97.2941 33.8972 98.2106 34.0873 98.2106 34.8026C98.2106 35.0833 98.2106 35.9345 95.9732 35.9345C94.9894 35.9345 93.9201 35.69 93.0396 35.2644C92.4286 34.9656 91.7053 35.2056 91.3908 35.8032L91.3728 35.8349C91.2156 36.1382 91.1886 36.4823 91.2919 36.8037C91.3998 37.1297 91.6244 37.3923 91.9344 37.5462C93.0081 38.0714 94.4637 38.3883 95.8295 38.3883C98.9159 38.3883 100.915 36.9667 100.915 34.7619C100.915 32.0409 98.4711 31.6154 96.5079 31.2713Z" fill="#0095E8"/>
<path d="M108.02 26.4082C104.512 26.4082 101.969 28.9209 101.969 32.3843C101.969 35.8568 104.516 38.3785 108.02 38.3785C111.516 38.3785 114.054 35.8568 114.054 32.3843C114.049 28.9209 111.516 26.4082 108.02 26.4082ZM111.327 32.3798C111.327 34.4533 109.966 35.9021 108.02 35.9021C106.062 35.9021 104.691 34.4533 104.691 32.3798C104.691 30.3198 106.062 28.8801 108.02 28.8801C109.997 28.8801 111.327 30.2881 111.327 32.3798Z" fill="#0095E8"/>
<path d="M44.1565 20.3416C43.8396 20.6172 43.3592 20.7483 42.8888 20.7483C41.718 20.7483 41.0508 20.0995 41.0508 18.9196V13.5645H42.1016V14.8419H43.7628C43.7628 15.3226 43.3759 15.7126 42.8989 15.7126H42.1016V18.8759C42.1016 19.5045 42.4185 19.8575 43.0089 19.8575C43.3158 19.8575 43.6094 19.7566 43.8296 19.5818L44.1565 20.3416Z" fill="#212121"/>
<path d="M51.0823 17.3237V20.6853C50.5019 20.6853 50.0315 20.2113 50.0315 19.6264V17.4447C50.0315 16.2984 49.4644 15.737 48.467 15.737C47.3528 15.737 46.6289 16.4093 46.6289 17.6766V20.6853H45.5781V13.0375C45.5781 12.7451 45.8116 12.5098 46.1019 12.5098C46.3921 12.5098 46.6256 12.7451 46.6256 13.0375V15.6697C47.0626 15.1083 47.7831 14.789 48.6705 14.789C50.0882 14.789 51.0823 15.6059 51.0823 17.3237Z" fill="#212121"/>
<path d="M58.5987 14.8457V20.6849H58.4786C57.9949 20.6849 57.6046 20.2916 57.6046 19.8042C57.1776 20.4093 56.4571 20.7522 55.6364 20.7522C54.1386 20.7522 53.1445 19.9252 53.1445 18.2074V14.8457H54.1953V18.0864C54.1953 19.2327 54.7624 19.8042 55.7599 19.8042C56.854 19.8042 57.5546 19.1217 57.5546 17.8645V14.8457H58.5987Z" fill="#212121"/>
<path d="M65.6047 15.5094L63.5731 20.1888C63.443 20.488 63.1495 20.683 62.8226 20.683C62.4956 20.683 62.2021 20.488 62.072 20.1888L60.0404 15.5094C59.9037 15.1967 60.1305 14.8438 60.4708 14.8438H60.5341C60.721 14.8438 60.8911 14.958 60.9678 15.1329L62.8359 19.5266L64.7473 15.1295C64.8207 14.958 64.9909 14.8438 65.1777 14.8438C65.5113 14.8471 65.7414 15.1967 65.6047 15.5094Z" fill="#212121"/>
<path d="M67.3071 14.8457H67.8342C67.9777 14.8457 68.0944 14.9634 68.0944 15.1079V20.4227C68.0944 20.5673 67.9777 20.6849 67.8342 20.6849H67.3071C67.1637 20.6849 67.0469 20.5673 67.0469 20.4227V15.1079C67.0436 14.9634 67.1604 14.8457 67.3071 14.8457Z" fill="#212121"/>
<path d="M74.5385 19.1189L75.1056 19.8013C74.5919 20.4199 73.7946 20.7493 72.8305 20.7493C70.9591 20.7493 69.7148 19.5055 69.7148 17.7641C69.7148 16.0329 70.9391 14.7891 72.6237 14.7891C74.0948 14.7891 75.2624 15.7539 75.4525 17.2834C75.4792 17.4918 75.3358 17.6835 75.129 17.7238L70.8757 18.5575C71.1693 19.3609 71.8932 19.8248 72.8639 19.8248C73.5444 19.8248 74.1115 19.5929 74.5385 19.1189ZM70.7323 17.7104V17.8213L74.4384 17.1153C74.2516 16.2783 73.5644 15.6833 72.6237 15.6833C71.5196 15.6833 70.7323 16.4867 70.7323 17.7104Z" fill="#212121"/>
<path d="M82.6058 17.3238V20.6854C82.0253 20.6854 81.555 20.2114 81.555 19.6265V17.4448C81.555 16.2985 80.9879 15.7371 79.9904 15.7371C78.8762 15.7371 78.1524 16.4094 78.1524 17.6767V20.6854H77.1016V14.8462H78.109V15.727C78.536 15.132 79.2799 14.7891 80.1973 14.7891C81.6083 14.7891 82.6058 15.6059 82.6058 17.3238Z" fill="#212121"/>
<path d="M16.2265 29.0679L0.583189 36.9138C0.102479 37.1538 0.102479 37.8419 0.583189 38.0864L16.2265 45.9323C16.4107 46.0229 16.6218 46.0229 16.806 45.9323L32.4493 38.0864C32.93 37.8465 32.93 37.1583 32.4493 36.9138L16.806 29.0679C16.6218 28.9774 16.4107 28.9774 16.2265 29.0679Z" fill="url(#paint0_linear_5364_8921)"/>
<path d="M18.3434 25.7734L0 31.1384L15.3108 42.6514L33.6542 37.2865L18.3434 25.7734Z" fill="white"/>
<path d="M20.3749 23.043L2.99746 24.8539C2.46283 24.9082 2.22473 25.5556 2.58863 25.9495L14.5075 38.8299C14.6468 38.9793 14.8445 39.0562 15.0467 39.0336L32.4286 37.2181C32.9632 37.1638 33.2013 36.5164 32.8374 36.1225L20.9185 23.2467C20.7792 23.0973 20.5771 23.0203 20.3749 23.043Z" fill="url(#paint1_linear_5364_8921)"/>
<path d="M23.5051 20.7065L4.46094 19.2441L14.7895 35.4385L33.8337 36.9008L23.5051 20.7065Z" fill="white"/>
<path d="M26.3635 18.8688L9.45778 14.4184C8.94113 14.2826 8.49187 14.8032 8.69404 15.3012L15.3701 31.5771C15.4464 31.7672 15.6082 31.9076 15.8058 31.9619L32.7116 36.4123C33.2282 36.5481 33.6775 36.0275 33.4753 35.5294L26.7993 19.2536C26.7184 19.0634 26.5612 18.9186 26.3635 18.8688Z" fill="url(#paint2_linear_5364_8921)"/>
<path d="M30.0892 17.794L12.7656 9.68555L16.7955 28.5012L34.1235 36.6097L30.0892 17.794Z" fill="white"/>
<path d="M33.4155 17.0774L19.1335 6.93155C18.6977 6.61916 18.0957 6.94966 18.1137 7.48842L18.6977 25.0863C18.7067 25.29 18.8055 25.4801 18.9718 25.5978L33.2493 35.7482C33.6851 36.0606 34.2871 35.7301 34.2691 35.1913L33.6851 17.5935C33.6806 17.3852 33.5818 17.1951 33.4155 17.0774Z" fill="url(#paint3_linear_5364_8921)"/>
<path d="M25.4176 13.2293L23.0859 11.5723L23.1848 14.4471L25.5119 16.0996L25.4176 13.2293Z" fill="white"/>
<path d="M23.8634 16.1656L22.2461 15.0156L22.3135 17.0077L23.9263 18.1531L23.8634 16.1656Z" fill="white"/>
<path d="M27.6148 16.1126L26.4961 15.3203L26.541 16.6966L27.6597 17.4934L27.6148 16.1126Z" fill="white"/>
<path d="M28.3301 19.0287L25.7109 17.168L25.8188 20.4005L28.438 22.2612L28.3301 19.0287Z" fill="white"/>
<path d="M25.8043 7.04373L23.4727 5.38672L23.567 8.26159L25.8987 9.91407L25.8043 7.04373Z" fill="#59C6E5"/>
<path d="M29.1134 7.09135L27.4961 5.94141L27.5635 7.93344L29.1763 9.07886L29.1134 7.09135Z" fill="#0CABC9"/>
<path d="M31.3082 5.44425L29.6953 4.29883L29.7582 6.29086L31.3756 7.43629L31.3082 5.44425Z" fill="#8ED839"/>
<path d="M32.5846 10.2338L29.9609 8.37305L30.0688 11.6011L32.688 13.4618L32.5846 10.2338Z" fill="#59C6E5"/>
<path d="M27.1583 1.86074L24.5391 0L24.6424 3.22801L27.2661 5.08875L27.1583 1.86074Z" fill="#0DACC2"/>
<defs>
<linearGradient id="paint0_linear_5364_8921" x1="0.22369" y1="37.4969" x2="32.8101" y2="37.4969" gradientUnits="userSpaceOnUse">
<stop stop-color="#09A5E3"/>
<stop offset="1" stop-color="#234AA6"/>
</linearGradient>
<linearGradient id="paint1_linear_5364_8921" x1="4.92762" y1="25.9784" x2="33.4671" y2="37.0989" gradientUnits="userSpaceOnUse">
<stop stop-color="#A6D63B"/>
<stop offset="1" stop-color="#52B541"/>
</linearGradient>
<linearGradient id="paint2_linear_5364_8921" x1="13.3096" y1="18.8403" x2="32.4907" y2="34.8142" gradientUnits="userSpaceOnUse">
<stop stop-color="#A6D63B"/>
<stop offset="1" stop-color="#52B541"/>
</linearGradient>
<linearGradient id="paint3_linear_5364_8921" x1="19.4265" y1="9.33598" x2="33.4364" y2="33.8172" gradientUnits="userSpaceOnUse">
<stop offset="0.1559" stop-color="#09A5E3"/>
<stop offset="1" stop-color="#234AA6"/>
</linearGradient>
</defs>
</svg>
